# xmcd
#
# Track frame offsets:
#	150
#	18026
#	39821
#	56917
#	78067
#	91652
#	110845
#	124911
#	145170
#	167884
#	184970
#	209136
#	228761
#
# Disc length: 3246 seconds
#
# Revision: 0
# Processed by: cddbd v1.5.1PL0 Copyright (c) Steve Scherf et al.
# Submitted via: dBpowerAMP V4.0
#
DISCID=a90cac0d
DTITLE=Marvin Sease - Playa Haters
DYEAR=2004
DGENRE=Blues
TTITLE0=Bad Love Affair
TTITLE1=Playa Haters
TTITLE2=Everything You Eat Ain't Good
TTITLE3=I Wanna Do Ya
TTITLE4=Pump My Juice
TTITLE5=Too Good To Be With You
TTITLE6=Pack It Up
TTITLE7=Cheatin John
TTITLE8=Mrs. Right
TTITLE9=Who's Knocking At My Door
TTITLE10=I Wanna Rock You
TTITLE11=Sit Down On It
TTITLE12=F. A. Y'all
EXTD=
EXTT0=
EXTT1=
EXTT2=
EXTT3=
EXTT4=
EXTT5=
EXTT6=
EXTT7=
EXTT8=
EXTT9=
EXTT10=
EXTT11=
EXTT12=
PLAYORDER=
